<svg height="477pt" viewBox="-104 0 477 477.28122" width="477pt" xmlns="http://www.w3.org/2000/svg" xmlns:xlink="http://www.w3.org/1999/xlink"><linearGradient id="a"><stop offset="0" stop-color="#e93e3a"/><stop offset=".352" stop-color="#ed6a3c"/><stop offset=".705" stop-color="#f3903f"/><stop offset="1" stop-color="#fdc70c"/></linearGradient><linearGradient id="b" gradientUnits="userSpaceOnUse" x1="134.34083" x2="134.34083" xlink:href="#a" y1="482.705223" y2="-34.830777"/><linearGradient id="c" gradientUnits="userSpaceOnUse" x1="61.81283" x2="61.81283" xlink:href="#a" y1="482.705223" y2="-34.830777"/><linearGradient id="d" gradientUnits="userSpaceOnUse" x1="205.81283" x2="205.81283" xlink:href="#a" y1="482.705223" y2="-34.830777"/><path d="m259.933594 32.65625c-7.253906-10.445312-18.390625-17.550781-30.921875-19.726562-11.65625-2.132813-23.691407.21875-33.6875 6.589843-7.222657-9.382812-17.707031-15.710937-29.375-17.726562-10.71875-1.902344-21.769531-.105469-31.335938 5.089843-22.097656-13.359374-50.8125-6.714843-64.800781 14.992188-22.679688-11.636719-50.5-3.40625-63.199219 18.695312-6.421875 10.988282-8.152343 24.097657-4.800781 36.375 13.464844 50.398438 94.65625 71.199219 98.105469 72.097657 2.679687.667969 5.515625-.089844 7.503906-2.007813 10.398437-10.464844 19.773437-21.898437 28-34.144531 9.898437 12.660156 21.082031 24.257813 33.375 34.605469 2.144531 1.738281 5.03125 2.246094 7.640625 1.34375 3.359375-1.160156 82.398438-29.007813 91.421875-80.328125 2.253906-12.53125-.601563-25.441407-7.925781-35.855469zm-160.519532 99.640625c-16.21875-4.800781-72.6875-23.953125-82.191406-59.503906-2.226562-8.171875-1.074218-16.894531 3.199219-24.207031 4.246094-7.363282 11.25-12.734376 19.464844-14.929688 2.625-.699219 5.328125-1.050781 8.046875-1.046875 7.257812.003906 14.300781 2.449219 20 6.945313 1.976562 1.558593 4.570312 2.101562 7.003906 1.457031 2.4375-.644531 4.425781-2.394531 5.371094-4.730469 6.289062-16.191406 24.410156-24.34375 40.695312-18.304688-1.402344 1.664063-2.691406 3.421876-3.855468 5.265626-.152344.238281-.261719.511718-.414063.75-1.28125 2.128906-2.398437 4.351562-3.335937 6.648437-.273438.664063-.539063 1.320313-.800782 2-.976562 2.597656-1.730468 5.273437-2.25 8-.402344 2.285156-.671875 4.59375-.796875 6.914063v2.335937c0 1.597656-.058593 3.152344.039063 4.796875.054687.960938.207031 1.9375.3125 2.914062.152344 1.449219.292968 2.902344.550781 4.375.175781 1.046876.441406 2.121094.664063 3.199219.3125 1.425781.617187 2.847657 1.007812 4.296875.3125 1.113282.6875 2.234375 1.046875 3.359375.457031 1.425781.914063 2.847657 1.457031 4.289063.433594 1.160156.929688 2.335937 1.414063 3.503906.601562 1.433594 1.21875 2.871094 1.898437 4.320312.558594 1.199219 1.175782 2.398438 1.792969 3.617188.742187 1.445312 1.519531 2.910156 2.34375 4.382812.6875 1.222657 1.414063 2.464844 2.160156 3.703126.4375.722656.796875 1.433593 1.261719 2.160156-7.59375 11.976562-16.332031 23.195312-26.085938 33.488281zm152.6875-66.558594c-6.351562 36.117188-60.9375 60.152344-76.671874 66.398438-12.757813-11.25-24.117188-23.988281-33.839844-37.945313-12.855469-19.132812-18.058594-36.199218-15.488282-50.703125 2.617188-15.304687 15.917969-26.472656 31.449219-26.398437 1.875 0 3.75.164062 5.597657.488281 9.964843 1.761719 18.492187 8.171875 22.953124 17.253906 1.140626 2.253907 3.277344 3.835938 5.765626 4.269531 2.484374.433594 5.03125-.335937 6.867187-2.066406 9.984375-9.492187 24.941406-11.496094 37.074219-4.964844 12.128906 6.53125 18.691406 20.121094 16.269531 33.683594zm0 0" fill="url(#b)"/><path d="m109.8125 165.28125h-96c-4.417969 0-8 3.582031-8 8v128c.054688 27.804688 20.484375 51.367188 48 55.359375v104.640625h-32c-4.417969 0-8 3.582031-8 8s3.582031 8 8 8h80c4.417969 0 8-3.582031 8-8s-3.582031-8-8-8h-32v-104.640625c27.515625-3.992187 47.945312-27.554687 48-55.359375v-128c0-4.417969-3.582031-8-8-8zm-88 16h80v48h-80zm40 160c-22.082031-.027344-39.972656-17.917969-40-40v-56h80v56c-.027344 22.082031-17.917969 39.972656-40 40zm0 0" fill="url(#c)"/><path d="m253.8125 165.28125h-96c-4.417969 0-8 3.582031-8 8v128c.054688 27.804688 20.484375 51.367188 48 55.359375v104.640625h-32c-4.417969 0-8 3.582031-8 8s3.582031 8 8 8h80c4.417969 0 8-3.582031 8-8s-3.582031-8-8-8h-32v-104.640625c27.515625-3.992187 47.945312-27.554687 48-55.359375v-128c0-4.417969-3.582031-8-8-8zm-88 16h80v48h-80zm40 160c-22.082031-.027344-39.972656-17.917969-40-40v-56h80v56c-.027344 22.082031-17.917969 39.972656-40 40zm0 0" fill="url(#d)"/></svg>